<svg xmlns="http://www.w3.org/2000/svg" id="Layer_3" viewBox="0 0 504.8 163.88"><defs><style>      .cls-1, .cls-2 {        fill: #146489;      }      .cls-2 {        fill-rule: evenodd;      }      .cls-3 {        fill: #161616;        font-family: BlowBrush, BlowBrush;        font-size: 85.04px;      }    </style></defs><g><path class="cls-2" d="M114.63,128.82h0c-1.13-1.23-.89-3.48.45-5.07l44.78-53.47,6.28,6.88-46.97,51.07c-1.4,1.52-3.41,1.82-4.54.59h0ZM172.39,62.81c7.3,7.99,16.4-2.23,14.57-19.46-4.95,9.71-10.36,3.38-15.64,9.17-1.86,2.05-2.53,4.98-.43,8.33,2.93.32,5.78-1.18,8.57-4.49-2.46,4.3-4.82,6.45-7.07,6.44h0ZM161.14,68.75l1.53-1.82,6.42,7.03-1.6,1.74-6.35-6.95h0ZM163.95,65.39l3.95-4.71,6.68,7.31-4.14,4.5-6.49-7.1Z"></path><g><polygon class="cls-1" points="34.01 78.31 40.92 70.93 43.44 73.68 36.53 81.06 34.01 78.31"></polygon><path class="cls-1" d="M35.92,61.03l4.1,8.96-6.72,7.32-8.07-4.25c-1.12-.59-2.02-1.58-2.54-2.8l-7.6-17.7.89-.95,10.91,11.9c-.38.63-.29,1.5.25,2.09.61.67,1.58.71,2.16.09.58-.62.55-1.67-.06-2.34-.54-.59-1.35-.69-1.93-.29l-10.91-11.9.9-.96,16.49,8.52c.93.48,1.7,1.3,2.16,2.3Z"></path><path class="cls-1" d="M45.38,49.27l-.91.98c-8.69-9.47-22.46-10.02-30.7-1.22-8.24,8.8-7.87,23.67.82,33.15l-.91.98c-9.22-10.06-9.61-25.84-.87-35.18,8.74-9.34,23.36-8.76,32.58,1.29Z"></path><polygon class="cls-1" points="16.51 48.4 13.36 51.76 10.03 48.13 13.18 44.76 16.51 48.4"></polygon><polygon class="cls-1" points="25.47 34.7 .48 61.4 0 60.88 24.99 34.18 25.47 34.7"></polygon><path class="cls-1" d="M26.52,33.06c.64.7.67,1.79.06,2.44-.61.65-1.62.61-2.26-.09-.64-.7-.67-1.79-.06-2.44.61-.65,1.62-.61,2.26.09Z"></path></g><path class="cls-1" d="M50.47,96.62c-4.77-5.34-9.55-10.68-14.32-16.02L94.13,15.77l.74,130.49c-1.05-2.18-2.88-5.32-5.92-8.25-2.03-1.95-4.02-3.26-5.62-4.12l.52-88.67-11.2,11.75v64.96c-.46-1.74-1.78-5.91-5.44-9.16-1.98-1.75-3.95-2.63-5.33-3.09-.05-13.54-.1-27.08-.15-40.62l-10.35,11.38c-.6,1.83-1.25,4.36-1.48,7.42-.27,3.64.13,6.68.57,8.76Z"></path><path class="cls-1" d="M105.51,15.08v129.75l57.91-64.88L105.51,15.08ZM116.29,45.76l31.95,34.19-31.95,34.85V45.76Z"></path></g><g><text class="cls-3" transform="translate(224.05 71.86)"><tspan x="0" y="0">Mehdi</tspan></text><text class="cls-3" transform="translate(183.35 141.77)"><tspan x="0" y="0">Designe</tspan></text></g></svg>